<svg xmlns="http://www.w3.org/2000/svg" viewBox="0 0 255.72 248.97"><defs><style>.cls-1{fill:transparent;}</style></defs><g id="Слой_2" data-name="Слой 2"><g id="Слой_1-2" data-name="Слой 1" fill="#1cb324"><path class="cls-1" d="M0,249V0H255.72V249Zm255.06-128c0-2.75-.08-5.5,0-8.25.46-14-2.94-27.13-8.08-40-3.79-9.52-9.75-17.61-15.36-26-9.35-14-22.41-23.5-36.87-31.39C185.73,10.32,176,7.47,166,5c-13.94-3.52-28-5.15-42.31-3.88A135.42,135.42,0,0,0,74.31,15C55.69,24.39,39.82,37.14,28.09,54.35c-6.34,9.3-11.51,19.52-16.34,29.73-12.76,27-14,55-4.61,83.07C10.68,177.71,16.67,187.71,23,197c5.09,7.55,11.86,14.15,18.65,20.34,21.85,19.9,47.49,30.74,77.34,30.63,5.49,0,11-.73,16.45-.71,14.38.06,27.86-3.63,40.88-9.34,20.19-8.87,37.74-21.23,51.43-38.74,7.55-9.66,14.32-19.8,19.06-31.16C253.06,153,256.71,137.41,255.06,120.93Z"/><path d="M255.06,120.93c1.65,16.48-2,32-8.3,47.1-4.74,11.36-11.51,21.5-19.06,31.16-13.69,17.51-31.24,29.87-51.43,38.74-13,5.71-26.5,9.4-40.88,9.34-5.48,0-11,.69-16.45.71-29.85.11-55.49-10.73-77.34-30.63C34.81,211.16,28,204.56,23,197c-6.28-9.3-12.27-19.3-15.81-29.86C-2.28,139.1-1,111.05,11.75,84.08c4.83-10.21,10-20.43,16.34-29.73,11.73-17.21,27.6-30,46.22-39.37a135.42,135.42,0,0,1,49.4-13.9C138-.19,152.08,1.44,166,5c9.95,2.51,19.71,5.36,28.74,10.29,14.46,7.89,27.52,17.39,36.87,31.39,5.61,8.39,11.57,16.48,15.36,26,5.14,12.91,8.54,26.05,8.08,40C255,115.43,255.06,118.18,255.06,120.93ZM138.52,207.31l.07-1.38c1.37-.42,2.75-1.19,4.13-1.2,11.19-.11,21.5-4.26,32-7.17,13.84-3.83,26.86-9.95,39.36-17,4.38-2.47,9.29-5.27,12-9.25a63.25,63.25,0,0,0,10.6-31.53c.23-3.47-2.1-4.89-5.09-3-3.36,2.09-6.56,4.48-9.73,6.86-2.29,1.72-4.25,3.94-6.67,5.41-5.42,3.3-11.18,6-16.54,9.43-13.4,8.45-28,14.42-43,18.79-13.08,3.81-26.86,5.54-40.45,7.08-8.48,1-17.2,0-25.79-.43-1.47-.08-2.84-1.89-4.26-2.9,1.38-.92,2.65-2.3,4.17-2.67,7.71-1.91,15.44-3.87,23.27-5.24A145.31,145.31,0,0,0,152,160.4c22.7-11.19,43.92-24.6,61.78-42.78,6.12-6.23,12-12.7,17.94-19.1,2.7-2.91,2.76-6.32,1.4-9.79-2.22-5.65-5.21-6.14-9.16-1.6-.65.75-1.2,1.59-1.84,2.35-5.14,6-10.3,12-15.51,18.15-2.77-2.06-3.05-3.68-1.63-5.95,1.58-2.51,2.83-5.24,4.16-7.9q4.57-9.15,9.11-18.34c2.29-4.62,4.37-10,1.23-14.26-5.66-7.66-12.33-14.62-19-21.47-2.92-3-6.12-1.79-7.77,2.23-5.87,14.38-12.78,28.41-22.53,40.37-8.51,10.43-18.65,19.72-29,28.39-12.13,10.13-26.48,16.88-41.4,22a113.59,113.59,0,0,1-23.18,5,55.93,55.93,0,0,1-18.12-.68c-10.92-2.35-21.81-15.22-23.24-25.54-1.73-12.48.33-24.47,4.89-36,3.25-8.2,7.48-16,11.24-24,.89-1.9,1.79-3.87-.38-5.79-.77.43-1.6.63-2,1.16C43.41,54.1,37.46,61.05,32.61,68.7c-5.89,9.3-9,19.87-11.69,30.55-4.71,18.46-3.73,36.51,2.18,54.53C26.77,165,30.79,176,37.61,185.63a108,108,0,0,0,36,32.55c18.58,10.35,38,16.83,59.56,14.94,4.1-.36,8.16-1.05,12.25-1.54,19.37-2.32,36.31-10.29,51.47-22.3,1-.79,1.38-2.39,2-3.61-1.28-.59-2.64-1.82-3.83-1.67a103.64,103.64,0,0,0-13.59,2.42c-12.48,3.23-25.06,4.43-37.85,2.46A35.09,35.09,0,0,1,138.52,207.31ZM64.27,103.17c-.95-12.12.8-23.69,6.76-34.44A16.84,16.84,0,0,1,73.94,65a3,3,0,0,1,2.28-.48c.27,0,.54,1.23.51,1.88-.19,4.24-.79,8.49-.64,12.72.31,9,.65,17.94,1.7,26.83a23.47,23.47,0,0,0,4.34,10.12c2.23,3.19,6,3.17,9.58,2s4-4,3.63-7.26c-.41-4.22-.79-8.46-.86-12.7a196.8,196.8,0,0,1,.22-20.18A106.06,106.06,0,0,1,108.87,32.6c2.59-4.38,5.46-8.6,7.87-13.07.71-1.31.92-3.73.16-4.75s-3.08-1-4.6-.71c-3.42.58-6.72,1.94-10.15,2.36-12.19,1.5-22,6.91-27.73,17.89-7.23,13.79-14,27.83-20.56,42-3.81,8.2-6,16.87-5.29,26.15.66,8.13,5,13.56,11.63,17.62,2.75,1.68,4,.61,4-2.26C64.33,112.91,64.27,108,64.27,103.17Z"/><path class="cls-1" d="M138.52,207.31a35.09,35.09,0,0,0,5.12,1.57c12.79,2,25.37.77,37.85-2.46A103.64,103.64,0,0,1,195.08,204c1.19-.15,2.55,1.08,3.83,1.67-.67,1.22-1,2.82-2,3.61-15.16,12-32.1,20-51.47,22.3-4.09.49-8.15,1.18-12.25,1.54-21.57,1.89-41-4.59-59.56-14.94a108,108,0,0,1-36-32.55C30.79,176,26.77,165,23.1,153.78c-5.91-18-6.89-36.07-2.18-54.53C23.64,88.57,26.72,78,32.61,68.7c4.85-7.65,10.8-14.6,16.31-21.81.41-.53,1.24-.73,2-1.16,2.17,1.92,1.27,3.89.38,5.79-3.76,8-8,15.82-11.24,24-4.56,11.5-6.62,23.49-4.89,36,1.43,10.32,12.32,23.19,23.24,25.54a55.93,55.93,0,0,0,18.12.68,113.59,113.59,0,0,0,23.18-5c14.92-5.1,29.27-11.85,41.4-22,10.36-8.67,20.5-18,29-28.39,9.75-12,16.66-26,22.53-40.37,1.65-4,4.85-5.23,7.77-2.23,6.67,6.85,13.34,13.81,19,21.47,3.14,4.23,1.06,9.64-1.23,14.26q-4.55,9.18-9.11,18.34c-1.33,2.66-2.58,5.39-4.16,7.9-1.42,2.27-1.14,3.89,1.63,5.95,5.21-6.1,10.37-12.12,15.51-18.15.64-.76,1.19-1.6,1.84-2.35,4-4.54,6.94-4,9.16,1.6,1.36,3.47,1.3,6.88-1.4,9.79-5.95,6.4-11.82,12.87-17.94,19.1C195.87,135.8,174.65,149.21,152,160.4a145.31,145.31,0,0,1-39.39,12.7c-7.83,1.37-15.56,3.33-23.27,5.24-1.52.37-2.79,1.75-4.17,2.67,1.42,1,2.79,2.82,4.26,2.9,8.59.44,17.31,1.4,25.79.43,13.59-1.54,27.37-3.27,40.45-7.08,15-4.37,29.62-10.34,43-18.79,5.36-3.39,11.12-6.13,16.54-9.43,2.42-1.47,4.38-3.69,6.67-5.41,3.17-2.38,6.37-4.77,9.73-6.86,3-1.87,5.32-.45,5.09,3a63.25,63.25,0,0,1-10.6,31.53c-2.68,4-7.59,6.78-12,9.25-12.5,7-25.52,13.16-39.36,17-10.52,2.91-20.83,7.06-32,7.17-1.38,0-2.76.78-4.13,1.2Z"/><path class="cls-1" d="M64.27,103.17c0,4.87.06,9.74,0,14.62,0,2.87-1.3,3.94-4,2.26-6.64-4.06-11-9.49-11.63-17.62-.75-9.28,1.48-18,5.29-26.15,6.55-14.13,13.33-28.17,20.56-42,5.75-11,15.54-16.39,27.73-17.89,3.43-.42,6.73-1.78,10.15-2.36,1.52-.26,3.92-.19,4.6.71s.55,3.44-.16,4.75c-2.41,4.47-5.28,8.69-7.87,13.07A106.06,106.06,0,0,0,94.7,77.91a196.8,196.8,0,0,0-.22,20.18c.07,4.24.45,8.48.86,12.7.32,3.26,0,6.07-3.63,7.26s-7.35,1.19-9.58-2a23.47,23.47,0,0,1-4.34-10.12C76.74,97,76.4,88.06,76.09,79.1c-.15-4.23.45-8.48.64-12.72,0-.65-.24-1.84-.51-1.88a3,3,0,0,0-2.28.48A16.84,16.84,0,0,0,71,68.73C65.07,79.48,63.32,91.05,64.27,103.17Z"/></g></g></svg>