<svg xmlns="http://www.w3.org/2000/svg" viewBox="0 0 269.97 270.72"><defs><style>.cls-1{fill:transparent;}</style></defs><g id="Слой_2" data-name="Слой 2"><g id="Слой_1-2" data-name="Слой 1" fill="#bd2f04"><path class="cls-1" d="M270,270.72H0V0H270ZM89.65,236.3l1.08.69c-.84,1.86-1.67,3.74-2.52,5.6-3.83,8.35-1.95,15.24,6.14,17.76,10,3.12,19.78,7.44,30.77,6.76,4.23-.26,7-1.55,9.36-4.88,4.09-5.88,4.57-6.22,9.39-1.12,7.23,7.66,15.06,6.86,23.57,3.19a35.24,35.24,0,0,1,5.33-1.72c16.37-4.11,30.8-12.08,43.87-22.52,4.17-3.33,7.52-7.66,11.52-11.23a97.8,97.8,0,0,0,25.69-36.74c2.61-6.44,4-13.38,6.41-19.88,4.67-12.37,5-25.1,4-38-.51-6.81-4.2-11-10.54-13.06-.87-.29-1.69-.76-2.95-1.34,1.41-1.84,2.42-3.4,3.67-4.75,4.15-4.45,5.51-9.78,3.33-15.26C254.26,90.88,250,82.24,246,73.54a4.59,4.59,0,0,0-2.62-1.76c-5.67-1.86-11.13-2.45-15.83,2.51-.69.73-2.39.5-3.62.71a30.51,30.51,0,0,1,.81-3.73c1.36-3.93,3.18-7.74,4.15-11.75,1.25-5.19-.59-9.34-5-12.68-6.08-4.57-11.76-9.66-17.68-14.43-5.09-4.09-14.22-4-17.51.4-2.68,3.58-4.71,7.64-7.11,11.43A21.07,21.07,0,0,1,179.08,47c-.61-1.14-1.61-2.25-1.74-3.45-.51-4.46-.67-9-1.09-13.43-.38-4-1-8.1-4.55-10.68A31.31,31.31,0,0,0,154,13.12c-8.74-.23-17.53.32-26.23-.34-11.71-.89-22.08,4.31-33.12,6.38-5.24,1-10,4.19-15.11,6.15-4,1.56-6.28,4.13-6.6,8.57-.36,5.18.25,10.42,5.22,12.67C87.85,51,94.32,59.25,102,66c9.08,8,18.2,9.52,29,5.75a69.79,69.79,0,0,1,8.15-2.54,28.31,28.31,0,0,1,20.54,3.34c7.23,4.09,14.92,7.39,22.17,11.44,6.83,3.81,13.4,8.1,20,12.32a37.31,37.31,0,0,1,6.4,5.13c2.09,2.12,2.34,4.55,0,6.92-6.53,6.58-9.64,15.29-14.16,23.12s-8.34,16.39-13.17,24.19c-4,6.52-8.64,8.67-15.41,1.92-1.77-1.77-2.42-3.15-1.08-5.47q7.38-12.77,14.49-25.68c2.42-4.43,3.06-9.11-.21-13.42-3-3.91-7.31-3.26-11.33-2.36-3.37.76-6.56,2.29-9.91,3.19-8.34,2.24-16.42,2.43-23.9-3-2.89-2.11-6.23-3.62-9.38-5.4S118.27,105,116,107c-2.58,2.33-4.5,5.11-2.86,8.94a21.39,21.39,0,0,0,10.67,11c8,3.83,15.89,7.79,25.24,7,3.22-.26,4,2.07,2.13,4.74a14.88,14.88,0,0,0-2.29,3.39c-2.42,7-7.72,11.06-13.87,14.55-5.25,3-9.41,7.22-10.46,13.46a97.47,97.47,0,0,0-1.14,13.34c-.11,3.94-.36,7.47-4.79,9.15a5.42,5.42,0,0,0-2.48,2.66,137.91,137.91,0,0,0-5.75,12.93c-1.92,5.36-2.59,5.84-7.18,2.74-3-2-5.91-4.16-8.69-6.45-4.89-4-10.14-7.76-14.36-12.41-8.33-9.2-14.17-20.07-19.5-31.26-2.54-5.35-5.47-10.9-9.57-15-7-7-15.11-13-22.72-19.47-3.85-3.26-8.06-5.21-13.31-4.87-3.13.21-5,1.68-5.72,4.43a42.8,42.8,0,0,0-1.57,9.56c-.42,16.87,3.17,33.14,8,49.18,1.06,3.55,3.27,6.75,4.45,10.28,3.75,11.13,13.38,13.53,22.51,10.88,3.85-1.13,7.67-2.37,11.51-3.56l.57.8C52,206.4,49.3,209.73,46.54,213c-4.4,5.28-3.54,16,1.63,20.45,3.11,2.69,6.19,5.42,9.29,8.13,8.41,7.37,17.11,7.31,25.51-.05C85.1,239.69,87.42,238.05,89.65,236.3Z"/><path d="M89.65,236.3c-2.23,1.75-4.55,3.39-6.68,5.26-8.4,7.36-17.1,7.42-25.51.05-3.1-2.71-6.18-5.44-9.29-8.13C43,229,42.14,218.31,46.54,213c2.76-3.3,5.48-6.63,8.22-9.95l-.57-.8c-3.84,1.19-7.66,2.43-11.51,3.56-9.13,2.65-18.76.25-22.51-10.88-1.18-3.53-3.39-6.73-4.45-10.28-4.78-16-8.37-32.31-8-49.18a42.8,42.8,0,0,1,1.57-9.56c.71-2.75,2.59-4.22,5.72-4.43,5.25-.34,9.46,1.61,13.31,4.87,7.61,6.46,15.7,12.43,22.72,19.47,4.1,4.12,7,9.67,9.57,15,5.33,11.19,11.17,22.06,19.5,31.26,4.22,4.65,9.47,8.39,14.36,12.41,2.78,2.29,5.7,4.43,8.69,6.45,4.59,3.1,5.26,2.62,7.18-2.74a137.91,137.91,0,0,1,5.75-12.93,5.42,5.42,0,0,1,2.48-2.66c4.43-1.68,4.68-5.21,4.79-9.15a97.47,97.47,0,0,1,1.14-13.34c1-6.24,5.21-10.48,10.46-13.46,6.15-3.49,11.45-7.55,13.87-14.55a14.88,14.88,0,0,1,2.29-3.39c1.91-2.67,1.09-5-2.13-4.74-9.35.74-17.29-3.22-25.24-7a21.39,21.39,0,0,1-10.67-11c-1.64-3.83.28-6.61,2.86-8.94,2.28-2.07,5-3.46,8.17-1.65s6.49,3.29,9.38,5.4c7.48,5.46,15.56,5.27,23.9,3,3.35-.9,6.54-2.43,9.91-3.19,4-.9,8.35-1.55,11.33,2.36,3.27,4.31,2.63,9,.21,13.42q-7.08,12.93-14.49,25.68c-1.34,2.32-.69,3.7,1.08,5.47,6.77,6.75,11.38,4.6,15.41-1.92,4.83-7.8,8.59-16.24,13.17-24.19s7.63-16.54,14.16-23.12c2.34-2.37,2.09-4.8,0-6.92a37.31,37.31,0,0,0-6.4-5.13c-6.59-4.22-13.16-8.51-20-12.32-7.25-4-14.94-7.35-22.17-11.44a28.31,28.31,0,0,0-20.54-3.34A69.79,69.79,0,0,0,131,71.71C120.16,75.48,111,73.91,102,66c-7.64-6.71-14.11-15-23.85-19.41-5-2.25-5.58-7.49-5.22-12.67.32-4.44,2.56-7,6.6-8.57,5.08-2,9.87-5.16,15.11-6.15,11-2.07,21.41-7.27,33.12-6.38,8.7.66,17.49.11,26.23.34a31.31,31.31,0,0,1,17.75,6.29c3.56,2.58,4.17,6.65,4.55,10.68.42,4.47.58,9,1.09,13.43.13,1.2,1.13,2.31,1.74,3.45a21.07,21.07,0,0,0,2.46-2.73c2.4-3.79,4.43-7.85,7.11-11.43,3.29-4.41,12.42-4.49,17.51-.4,5.92,4.77,11.6,9.86,17.68,14.43,4.44,3.34,6.28,7.49,5,12.68-1,4-2.79,7.82-4.15,11.75a30.51,30.51,0,0,0-.81,3.73c1.23-.21,2.93,0,3.62-.71,4.7-5,10.16-4.37,15.83-2.51A4.59,4.59,0,0,1,246,73.54c4.06,8.7,8.28,17.34,11.82,26.24,2.18,5.48.82,10.81-3.33,15.26-1.25,1.35-2.26,2.91-3.67,4.75,1.26.58,2.08,1,2.95,1.34,6.34,2.09,10,6.25,10.54,13.06,1,12.92.64,25.65-4,38-2.46,6.5-3.8,13.44-6.41,19.88a97.8,97.8,0,0,1-25.69,36.74c-4,3.57-7.35,7.9-11.52,11.23-13.07,10.44-27.5,18.41-43.87,22.52a35.24,35.24,0,0,0-5.33,1.72c-8.51,3.67-16.34,4.47-23.57-3.19-4.82-5.1-5.3-4.76-9.39,1.12-2.32,3.33-5.13,4.62-9.36,4.88-11,.68-20.78-3.64-30.77-6.76-8.09-2.52-10-9.41-6.14-17.76.85-1.86,1.68-3.74,2.52-5.6Zm98.47-16.91c6.17.11,8.9-1.79,8.88-6.64,0-2.1-1.64-4.69-3.32-6.19-9.76-8.7-19.73-17.17-29.69-25.65a111.07,111.07,0,0,0-9.43-7.32c-2.83-1.92-6.74-.66-9.65,2.36-2.76,2.87-2.32,5.56.07,8.22a56,56,0,0,0,5.31,5.25c4.77,4,9.67,7.83,14.45,11.82,6.41,5.35,12.7,10.84,19.16,16.12A16.46,16.46,0,0,0,188.12,219.39Zm-61.42-7.32a45.18,45.18,0,0,0,3.21,4.69,66.91,66.91,0,0,0,7.14,7.05c5.94,4.69,11.95,9.31,18.19,13.59,2.75,1.88,7.51-.36,10.2-3.88,2.41-3.14.83-5.62-1.47-7.45-8.45-6.71-17-13.3-25.73-19.66-1.38-1-4.33-1.48-5.59-.68C130.33,207.18,128.74,209.78,126.7,212.07Zm90.8-13.8c4.32,0,6.88-2.35,8.81-5.71s-1.09-4.67-2.65-6.56a22.41,22.41,0,0,0-3.13-3.18c-4.76-3.83-9.74-7.39-14.34-11.39-7.55-6.57-7.83-6.69-15.45-.21-3.12,2.65-3.29,3.92-.24,6.55q11,9.51,22.22,18.73C214,197.52,215.89,197.7,217.5,198.27Zm22.22-41a6.85,6.85,0,0,0-1.28-2.38c-7-6.46-14-12.89-21.2-19.17-1.89-1.66-4-.75-5,1.31a63.31,63.31,0,0,0-3.61,9,3.63,3.63,0,0,0,.9,3.23c6.33,5,12.66,10,19.29,14.52C232.85,166.55,239.82,162.54,239.72,157.31Z"/><path class="cls-1" d="M188.12,219.39a16.46,16.46,0,0,1-4.22-2c-6.46-5.28-12.75-10.77-19.16-16.12-4.78-4-9.68-7.82-14.45-11.82a56,56,0,0,1-5.31-5.25c-2.39-2.66-2.83-5.35-.07-8.22,2.91-3,6.82-4.28,9.65-2.36a111.07,111.07,0,0,1,9.43,7.32c10,8.48,19.93,17,29.69,25.65,1.68,1.5,3.31,4.09,3.32,6.19C197,217.6,194.29,219.5,188.12,219.39Z"/><path class="cls-1" d="M126.7,212.07c2-2.29,3.63-4.89,6-6.34,1.26-.8,4.21-.33,5.59.68,8.72,6.36,17.28,13,25.73,19.66,2.3,1.83,3.88,4.31,1.47,7.45-2.69,3.52-7.45,5.76-10.2,3.88-6.24-4.28-12.25-8.9-18.19-13.59a66.91,66.91,0,0,1-7.14-7.05A45.18,45.18,0,0,1,126.7,212.07Z"/><path class="cls-1" d="M217.5,198.27c-1.61-.57-3.53-.75-4.78-1.77q-11.25-9.19-22.22-18.73c-3.05-2.63-2.88-3.9.24-6.55,7.62-6.48,7.9-6.36,15.45.21,4.6,4,9.58,7.56,14.34,11.39a22.41,22.41,0,0,1,3.13,3.18c1.56,1.89,4.56,3.24,2.65,6.56S221.82,198.24,217.5,198.27Z"/><path class="cls-1" d="M239.72,157.31c.1,5.23-6.87,9.24-10.87,6.49-6.63-4.55-13-9.55-19.29-14.52a3.63,3.63,0,0,1-.9-3.23,63.31,63.31,0,0,1,3.61-9c1-2.06,3.08-3,5-1.31,7.16,6.28,14.2,12.71,21.2,19.17A6.85,6.85,0,0,1,239.72,157.31Z"/></g></g></svg>